<?xml version="1.0" encoding="utf-8"?>
<!-- Generator: Adobe Illustrator 22.1.0, SVG Export Plug-In . SVG Version: 6.00 Build 0)  -->
<svg version="1.1" id="Layer_1" xmlns="http://www.w3.org/2000/svg" xmlns:xlink="http://www.w3.org/1999/xlink" x="0px" y="0px"
   viewBox="0 0 86.833 52.5" style="enable-background:new 0 0 86.833 52.5;" xml:space="preserve">
<g>
  <path style="fill:#FFBB22;" d="M58.143,13.446H29.036l1.531,2.439l19.968,0.077c1.411,0.005,2.591,1.08,2.702,2.453l2.611,25.272
    l6.212-27.447C62.39,14.781,61.337,13.446,58.143,13.446z"/>
  <path style="fill:#FFBB22;" d="M51.158,17.68c-0.185-0.115-0.402-0.182-0.629-0.183l-20.151-0.078
    c-0.203-0.001-0.403-0.056-0.579-0.154c-0.176-0.098-0.329-0.239-0.437-0.412l-3.432-5.468c-0.024-0.039-0.058-0.071-0.088-0.106
    c-0.035-0.043-0.066-0.091-0.107-0.129c-0.033-0.031-0.073-0.053-0.11-0.08c-0.045-0.033-0.087-0.071-0.136-0.099
    c-0.043-0.024-0.091-0.037-0.137-0.056c-0.048-0.019-0.093-0.045-0.144-0.058c-0.044-0.011-0.09-0.011-0.136-0.018
    c-0.055-0.008-0.109-0.022-0.166-0.021c0,0,0,0,0,0L3.628,10.855c-1.518,0.002-2.595,1.217-2.357,2.657l3.467,31.861
    c0.089,0.54,0.603,0.962,1.172,0.962h47.598c0.578,0,1.006-0.435,0.968-0.984l-2.769-26.799
    C51.683,18.192,51.466,17.871,51.158,17.68z"/>
</g>
<path style="fill:#BABABA;" d="M82.297,44.932c-0.177-0.105-17.73-10.627-22.77-26.583l-0.625-1.979l-0.609,1.984
  c-0.573,1.864-2.657,6.875-5.383,7.677l-0.534,0.157l0.076,0.552c0.842,6.102-0.306,18.564-0.317,18.689l-0.066,0.707h32.264
  L82.297,44.932z M54.055,32.516c1.206,0.762,2.203,1.112,2.863,1.254c-1.161,3.282-2.325,6.112-3.21,8.138
  C53.88,39.358,54.062,35.839,54.055,32.516z M59.524,29.969c1.048,1.854,3.123,5.071,5.825,7.007
  c-1.393,0.59-2.806,1.312-4.166,2.083l-0.516-0.211c-2.977-1.226-2.356-4.95-2.265-5.422C58.782,32.315,59.159,31.159,59.524,29.969
  z M59.658,39.95c-2.047,1.242-3.883,2.513-5.201,3.468c0.726-1.62,1.737-3.99,2.802-6.82C57.598,37.9,58.315,39.182,59.658,39.95z
   M59.718,41.445c0.067,0.424,0.214,0.892,0.514,1.404c0.47,0.8,1.211,1.455,2.16,1.994H54.71
  C55.899,43.969,57.678,42.715,59.718,41.445z M61.359,42.213c-0.319-0.536-0.425-1.059-0.447-1.496
  c1.709-1.013,3.529-1.975,5.281-2.692c0.326,1.567,1.489,4.743,5.562,6.816h-5.388C63.852,44.39,62.118,43.486,61.359,42.213z
   M66.84,36.397c-3.567-2.08-6.254-7.12-6.794-8.192c0.31-1.087,0.605-2.195,0.877-3.317c2.243,4.16,5.174,7.817,8.123,10.878
  C68.336,35.915,67.597,36.13,66.84,36.397z M58.894,20.466c0.343,0.907,0.733,1.788,1.145,2.657c-0.319,1.42-0.68,2.828-1.068,4.207
  c-0.62-0.375-1.623-1.104-2.67-2.301C57.482,23.583,58.356,21.776,58.894,20.466z M55.409,25.975
  c1.293,1.455,2.523,2.267,3.188,2.635c-0.402,1.354-0.823,2.668-1.254,3.929c-0.594-0.106-1.787-0.467-3.309-1.599
  c-0.032-1.391-0.104-2.713-0.237-3.862C54.378,26.823,54.913,26.434,55.409,25.975z M75.147,44.842
  c-6.329-1.716-7.518-5.836-7.737-7.271c0.967-0.333,1.895-0.571,2.754-0.676c3.804,3.757,7.496,6.495,9.624,7.948H75.147z"/>
</svg>
