<?xml version="1.0" encoding="utf-8"?>
<!-- Generator: Adobe Illustrator 22.1.0, SVG Export Plug-In . SVG Version: 6.00 Build 0)  -->
<svg version="1.1" id="Layer_1" xmlns="http://www.w3.org/2000/svg" xmlns:xlink="http://www.w3.org/1999/xlink" x="0px" y="0px"
   viewBox="0 0 100 100" style="enable-background:new 0 0 100 100;" xml:space="preserve">
<path style="fill:#FFBB22;" d="M91.668,63.147c0,0-3.045-0.015-7.741-0.046l-1.381,7.091c-0.141,0.726-0.532,1.353-1.072,1.798
  l2.352,22.768l0.004,0.035l0.002,0.035c0.019,0.274-0.006,0.541-0.052,0.803c0.286-0.203,0.514-0.487,0.612-0.809l8.169-30.473
  C92.762,63.693,92.356,63.15,91.668,63.147z"/>
<path style="fill:#A1E0FF;" d="M87.628,33.637l-6.812-1.329c-0.516-0.1-0.85-0.603-0.743-1.118l1.343-6.951L87.628,33.637
  l-6.212-9.398l0-0.001l-20.088-3.912l3.483,16.243l0.709-0.034c0.032-0.002,0.063-0.002,0.095-0.002c0.503,0,0.989,0.19,1.359,0.533
  l8.266,7.655c0.385,0.356,0.614,0.849,0.639,1.373l0.368,7.76l0.056,0c1.901,0.006,3.492,1.454,3.641,3.304l1.076,10.416
  L87.628,33.637z"/>
<path style="fill:#073682;" d="M80.072,31.19c-0.107,0.515,0.227,1.018,0.743,1.118l6.812,1.329l-6.212-9.399L80.072,31.19z"/>
<path style="fill:#A1E0FF;" d="M62.786,36.666l-3.593-16.755l-0.456-2.126l-2.055-9.58L47.279,2l0,0l0,0l9.404,6.204l-6.787,1.453
  c-0.514,0.11-1.019-0.221-1.123-0.736L47.278,2L20.965,7.643c-0.509,0.109-0.834,0.611-0.725,1.12l3.775,17.604l11.332-3.628
  c0.199-0.064,0.404-0.095,0.609-0.095c0.322,0,0.643,0.078,0.933,0.231l9.968,5.248c0.464,0.244,0.813,0.661,0.973,1.16l2.552,7.971
  L62.786,36.666z"/>
<path style="fill:#073682;" d="M49.895,9.657l6.787-1.453L47.278,2l0,0l0,0l1.495,6.92C48.876,9.436,49.381,9.767,49.895,9.657z"/>
<path style="fill:#A1E0FF;" d="M65.615,38.535L65.615,38.535L65.615,38.535l8.266,7.655l-6.933,0.326
  c-0.525,0.025-0.969-0.384-0.987-0.91L65.615,38.535l-14.6,0.692l4.658,14.551l18.571,0.069l-0.363-7.658L65.615,38.535z"/>
<path style="fill:#073682;" d="M65.96,45.606c0.018,0.525,0.462,0.935,0.987,0.91l6.933-0.326l-8.266-7.655l0,0l0,0L65.96,45.606z"
  />
<path style="fill:#A1E0FF;" d="M45.926,29.893l-6.611,2.113c-0.501,0.16-1.036-0.12-1.19-0.622l-2.168-6.74l-11.52,3.688
  l-1.914,0.613L10.327,32.85c-0.496,0.159-0.77,0.69-0.611,1.186l3.356,10.484l26.049-0.042h0.002c1.258,0,2.456,0.664,3.126,1.732
  l4.73,7.536l6.591,0.024L45.926,29.893z"/>
<path style="fill:#073682;" d="M35.957,24.645L35.957,24.645L35.957,24.645l2.168,6.74c0.154,0.503,0.689,0.783,1.19,0.622
  l6.611-2.113L35.957,24.645L35.957,24.645L35.957,24.645z"/>
<path style="fill:#FFBB22;" d="M81.838,94.963l-3.888-37.627c-0.055-0.808-0.805-1.479-1.655-1.482L46.8,55.745
  c-0.285-0.001-0.566-0.078-0.813-0.216s-0.462-0.336-0.614-0.579l-4.818-7.678c-0.034-0.055-0.082-0.099-0.123-0.149
  c-0.049-0.061-0.092-0.128-0.15-0.181c-0.046-0.043-0.103-0.074-0.154-0.112c-0.063-0.047-0.122-0.1-0.191-0.139
  c-0.061-0.034-0.128-0.052-0.193-0.078c-0.067-0.027-0.131-0.063-0.202-0.081c-0.062-0.016-0.127-0.016-0.191-0.025
  c-0.078-0.011-0.154-0.031-0.233-0.03L6.838,46.529c-2.131,0.003-3.643,1.708-3.309,3.731l4.868,44.734
  c0.125,0.758,0.847,1.351,1.646,1.351h70.436C81.29,96.345,81.891,95.734,81.838,94.963z"/>
</svg>
